<?xml version="1.0" encoding="UTF-8"?>
<svg width="32px" height="31px" viewBox="0 0 32 31" version="1.1" xmlns="http://www.w3.org/2000/svg" xmlns:xlink="http://www.w3.org/1999/xlink">
    <!-- Generator: Sketch 51.2 (57519) - http://www.bohemiancoding.com/sketch -->
    <title>ig</title>
    <desc>Created with Sketch.</desc>
    <defs></defs>
    <g id="Page-1" stroke="none" stroke-width="1" fill="none" fill-rule="evenodd">
        <g id="jenevieve-chang-home-06" transform="translate(-1084.000000, -751.000000)" fill="#FFEEE4">
            <g id="splash" transform="translate(0.000000, 100.000000)">
                <g id="social" transform="translate(1024.000000, 651.000000)">
                    <g id="ig" transform="translate(60.000000, 0.000000)">
                        <path d="M22.85544,30.6047431 L8.93902638,30.6047431 C4.40459684,30.6047431 0.71541502,26.9159408 0.71541502,22.3811317 L0.71541502,8.46471808 C0.71541502,3.92990899 4.40459684,0.241106719 8.93902638,0.241106719 L22.85544,0.241106719 C27.3902491,0.241106719 31.0790514,3.92990899 31.0790514,8.46471808 L31.0790514,22.3815113 C31.0790514,26.9159408 27.3902491,30.6047431 22.85544,30.6047431 L22.85544,30.6047431 Z M8.99946355,2.88142292 C5.88750955,2.88142292 3.35573123,5.41316327 3.35573123,8.5250706 L3.35573123,22.3207792 C3.35573123,25.4326865 5.88750955,27.9644269 8.99946355,27.9644269 L22.7950029,27.9644269 C25.9069569,27.9644269 28.4387352,25.4326865 28.4387352,22.3207792 L28.4387352,8.5250706 C28.4387352,5.41316327 25.9069569,2.88142292 22.7950029,2.88142292 L8.99946355,2.88142292 L8.99946355,2.88142292 Z" id="Shape"></path>
                        <path d="M15.8972332,22.6837945 C11.8935897,22.6837945 8.63636364,19.4262053 8.63636364,15.4229249 C8.63636364,11.4189184 11.8935897,8.16205534 15.8972332,8.16205534 C19.9008767,8.16205534 23.1581028,11.4189184 23.1581028,15.4229249 C23.1581028,19.4262053 19.9008767,22.6837945 15.8972332,22.6837945 L15.8972332,22.6837945 Z M15.8972332,10.8023715 C18.4454166,10.8023715 20.5177866,12.8750881 20.5177866,15.4229249 C20.5177866,17.9711083 18.44507,20.0434783 15.8972332,20.0434783 C13.3493964,20.0434783 11.2766798,17.9711083 11.2766798,15.4229249 C11.2766798,12.8750881 13.3493964,10.8023715 15.8972332,10.8023715 Z M23.8181818,9.48221344 C22.724527,9.48221344 21.8379447,8.59563107 21.8379447,7.50197628 C21.8379447,6.4083215 22.724527,5.52173913 23.8181818,5.52173913 C24.9118366,5.52173913 25.798419,6.4083215 25.798419,7.50197628 C25.798419,8.59563107 24.9118366,9.48221344 23.8181818,9.48221344 Z" id="Combined-Shape"></path>
                    </g>
                </g>
            </g>
        </g>
    </g>
</svg>