<?xml version="1.0" encoding="UTF-8"?>
<svg width="33px" height="32px" viewBox="0 0 33 32" version="1.1" xmlns="http://www.w3.org/2000/svg" xmlns:xlink="http://www.w3.org/1999/xlink">
    <!-- Generator: Sketch 51.2 (57519) - http://www.bohemiancoding.com/sketch -->
    <title>Jin &amp; Co. Logo</title>
    <desc>Created with Sketch.</desc>
    <defs></defs>
    <g id="Page-1" stroke="none" stroke-width="1" fill="none" fill-rule="evenodd">
        <g id="jenevieve-chang-work-06.1" transform="translate(-1279.000000, -2919.000000)">
            <g id="footer" transform="translate(0.000000, 2885.000000)">
                <g id="Jin-&amp;-Co.-Logo" transform="translate(1279.000000, 34.000000)">
                    <rect id="Rectangle-path" fill="#A9A387" x="0" y="0" width="32.6808511" height="32"></rect>
                    <path d="M6.12765957,10.1047534 L6.70229787,10.1047534 C6.87014558,10.1047534 6.98295185,10.0681109 7.04071669,9.99449131 C7.09833819,9.92087172 7.12729227,9.81680039 7.12729227,9.68211001 L7.12729227,5.44680851 L8.85106383,5.44680851 L8.85106383,10.021764 C8.85106383,10.5914793 8.73940426,10.992706 8.51637178,11.2254443 C8.29333931,11.4583499 7.93786338,11.5744681 7.45008735,11.5744681 L6.12780291,11.5744681 L6.12780291,10.1047534 L6.12765957,10.1047534 Z" id="Shape" fill="#F2F2F2"></path>
                    <polygon id="Shape" fill="#F2F2F2" points="12.4595246 5.44680851 12.4595246 11.5744681 10.4169714 11.5744681 10.4169714 5.44680851"></polygon>
                    <polygon id="Shape" fill="#F2F2F2" points="14.2978723 5.44680851 15.9760839 5.44680851 17.7403978 7.80775773 17.7403978 5.44680851 19.7446809 5.44680851 19.7446809 11.5744681 18.0568636 11.5744681 16.3019807 9.22272106 16.3019807 11.5744681 14.2978723 11.5744681"></polygon>
                    <path d="M7.7742769,12.9361702 L9.24666457,12.9361702 L11.5744681,19.0638298 L9.64211636,19.0638298 L9.43986623,18.5127018 L7.5812428,18.5127018 L7.37865754,19.0638298 L5.44680851,19.0638298 L7.7742769,12.9361702 L7.7742769,12.9361702 Z M8.94832827,17.3130699 L8.51099256,16.43769 L8.07294833,17.3130699 L8.94832827,17.3130699 L8.94832827,17.3130699 Z" id="Shape" fill="#F2F2F2"></path>
                    <polygon id="Shape" fill="#F2F2F2" points="12.2553191 12.9361702 13.9335307 12.9361702 15.6978446 15.2972867 15.6978446 12.9361702 17.7021277 12.9361702 17.7021277 19.0638298 16.0141357 19.0638298 14.2592529 16.7119155 14.2592529 19.0638298 12.2553191 19.0638298"></polygon>
                    <path d="M18.3829787,19.0638298 L18.3829787,12.9361702 L20.1201901,12.9361702 C20.7087246,12.9361702 21.2332916,13.0004183 21.6932071,13.1290817 C22.1532936,13.2577452 22.541374,13.450824 22.8577904,13.7079836 C23.1740357,13.9651432 23.4148542,14.2852123 23.58093,14.6676891 C23.7470059,15.0508352 23.8297872,15.4933772 23.8297872,15.9953152 C23.8297872,16.4975879 23.7470059,16.9399626 23.58093,17.322774 C23.4148542,17.7055855 23.1740357,18.0256546 22.8577904,18.2829815 C22.541374,18.5399738 22.1534646,18.7345584 21.6932071,18.8662335 C21.2332916,18.9980759 20.7087246,19.0638298 20.1201901,19.0638298 L18.3829787,19.0638298 L18.3829787,19.0638298 Z M20.1985816,17.3130699 C20.7767521,17.3130699 21.2237021,17.2047514 21.5400635,16.9882811 C21.8562143,16.7716442 22.0141844,16.4406896 22.0141844,15.9954173 C22.0141844,15.5503117 21.8562143,15.2210235 21.5400635,15.0073861 C21.2237021,14.7939154 20.7767521,14.6869301 20.1985816,14.6869301 L20.1985816,17.3130699 L20.1985816,17.3130699 Z" id="Shape" fill="#F2F2F2"></path>
                    <path d="M5.44680851,24.1703722 C5.44680851,23.7033678 5.53090374,23.2819636 5.69942269,22.9053626 C5.8674489,22.5287615 6.0960828,22.2062111 6.3846674,21.9377115 C6.673252,21.6693713 7.00996141,21.4636916 7.39463138,21.3206725 C7.77930135,21.1778128 8.18844435,21.106383 8.62107488,21.106383 C8.96402573,21.106383 9.26870668,21.1382713 9.53643173,21.2025263 C9.80382827,21.2669407 10.0337762,21.339646 10.2264396,21.4214396 C10.4488321,21.5145535 10.6413313,21.6170744 10.8037731,21.7277269 L9.85671629,23.3473347 C9.76046667,23.2774992 9.65485489,23.2105338 9.54119493,23.1461194 C9.43886812,23.099403 9.31666724,23.0541216 9.17574204,23.0102751 C9.03432409,22.9664287 8.87368906,22.9445852 8.69334421,22.9445852 C8.50675793,22.9445852 8.33544675,22.9767924 8.17924643,23.0408879 C8.02288187,23.104824 7.88622712,23.1925169 7.76878945,23.3034882 C7.65184452,23.4143001 7.56002962,23.5440856 7.49367323,23.6930041 C7.42748108,23.8417631 7.39446714,24.0008858 7.39446714,24.1700533 C7.39446714,24.3393803 7.42879507,24.4983436 7.49827218,24.6469432 C7.5670923,24.796021 7.66186368,24.925966 7.78225783,25.0366184 C7.90248772,25.1474303 8.04374143,25.2351232 8.20601894,25.2992187 C8.36829645,25.3634737 8.54584907,25.3955215 8.7383483,25.3955215 C8.93035479,25.3955215 9.10215871,25.3724024 9.25244608,25.3253672 C9.40240496,25.2788102 9.52871205,25.2263539 9.63103886,25.1678389 C9.75126876,25.1040622 9.85655204,25.0280086 9.94656021,24.9403157 L10.893617,26.5600829 C10.7313395,26.688274 10.5390045,26.8024341 10.3166121,26.9016068 C10.1241128,26.9832409 9.89252246,27.0591351 9.62200519,27.12913 C9.35165217,27.1989654 9.04171527,27.2340426 8.69334421,27.2340426 C8.22441477,27.2340426 7.79145574,27.1595833 7.39446714,27.0111432 C6.99780703,26.8622247 6.65485617,26.6535157 6.36627157,26.3848566 C6.07801547,26.1165164 5.85250229,25.7941255 5.69006053,25.4178433 C5.52778302,25.0415611 5.44680851,24.625578 5.44680851,24.1703722 L5.44680851,24.1703722 Z" id="Shape" fill="#F2F2F2"></path>
                    <path d="M11.5744681,24.1702128 C11.5744681,23.7499466 11.6546589,23.3532765 11.8153593,22.9795649 C11.9757408,22.6061721 12.1944719,22.2806093 12.4718715,22.0035142 C12.7489521,21.7264191 13.0741791,21.5075172 13.4477119,21.3469678 C13.8212447,21.1864185 14.218213,21.106383 14.6381384,21.106383 C15.0587016,21.106383 15.4551916,21.1862591 15.8287244,21.3469678 C16.2022572,21.5075172 16.5278031,21.7264191 16.8050431,22.0035142 C17.0821238,22.2806093 17.3008549,22.6061721 17.4615553,22.9795649 C17.6219369,23.3532765 17.7021277,23.7499466 17.7021277,24.1702128 C17.7021277,24.590479 17.6219369,24.9873084 17.4615553,25.3607012 C17.3008549,25.7344129 17.0821238,26.0596568 16.8050431,26.3367519 C16.5279625,26.6141659 16.2024166,26.8327489 15.8287244,26.9932983 C15.455351,27.154007 15.0587016,27.2340426 14.6381384,27.2340426 C14.218213,27.2340426 13.8212447,27.154007 13.4477119,26.9932983 C13.0743386,26.8327489 12.7491115,26.6141659 12.4718715,26.3367519 C12.1944719,26.0596568 11.9757408,25.7344129 11.8153593,25.3607012 C11.6548183,24.9873084 11.5744681,24.590479 11.5744681,24.1702128 L11.5744681,24.1702128 Z M13.325228,24.1702128 C13.325228,24.351644 13.359733,24.5219706 13.4284014,24.6811927 C13.4974115,24.8409274 13.59119,24.9801613 13.7100786,25.0987237 C13.8286255,25.2174569 13.9678413,25.3114185 14.1270427,25.3800958 C14.286415,25.448944 14.4567195,25.4832827 14.6381271,25.4832827 C14.8195347,25.4832827 14.9898392,25.4491148 15.149553,25.3800958 C15.309096,25.3114185 15.448141,25.2174569 15.5668588,25.0987237 C15.6857474,24.9801613 15.7793551,24.8407565 15.8481943,24.6811927 C15.9168628,24.5217998 15.9513678,24.351644 15.9513678,24.1702128 C15.9513678,23.9887816 15.9168628,23.8182841 15.8481943,23.659062 C15.7793551,23.4993273 15.6855766,23.3604351 15.5668588,23.2417018 C15.4479702,23.1227978 15.309096,23.0288362 15.149553,22.9603297 C14.9898392,22.8916524 14.8195347,22.8571429 14.6381271,22.8571429 C14.4567195,22.8571429 14.286415,22.8916524 14.1270427,22.9603297 C13.9676705,23.0288362 13.8286255,23.1227978 13.7100786,23.2417018 C13.59119,23.3604351 13.4972406,23.4994982 13.4284014,23.659062 C13.359733,23.8182841 13.325228,23.9889524 13.325228,24.1702128 L13.325228,24.1702128 Z" id="Shape" fill="#F2F2F2"></path>
                </g>
            </g>
        </g>
    </g>
</svg>