<?xml version="1.0" encoding="UTF-8"?>
<svg width="27px" height="20px" viewBox="0 0 27 20" version="1.1" xmlns="http://www.w3.org/2000/svg" xmlns:xlink="http://www.w3.org/1999/xlink">
    <!-- Generator: Sketch 51.2 (57519) - http://www.bohemiancoding.com/sketch -->
    <title>mail</title>
    <desc>Created with Sketch.</desc>
    <defs></defs>
    <g id="Page-1" stroke="none" stroke-width="1" fill="none" fill-rule="evenodd">
        <g id="jenevieve-chang-home-06" transform="translate(-1275.000000, -756.000000)" fill="#FFEEE4" fill-rule="nonzero">
            <g id="splash" transform="translate(0.000000, 100.000000)">
                <g id="social" transform="translate(1024.000000, 651.000000)">
                    <g id="mail" transform="translate(251.250000, 5.250000)">
                        <path d="M13.9798475,10.908225 C13.2508755,11.5176 12.0662218,11.525775 11.3494092,10.926825 L10.9011419,10.54905 L1.25449619,18.621675 C1.85816687,19.13595 2.62954857,19.459275 3.48285807,19.459275 L22.1709959,19.459275 C23.1058625,19.459275 23.9493851,19.0815 24.5752986,18.47505 L14.7554554,10.2603 L13.9798475,10.908225 Z" id="Shape"></path>
                        <path d="M13.9798475,9.58755 L24.4006923,0.8688 C23.7956871,0.3525 23.0243054,0.029775 22.17107,0.029775 L3.48285807,0.029775 C2.54910364,0.029775 1.70439471,0.4083 1.08018647,1.01355 L11.3494834,9.605325 C12.0662218,10.205025 13.2508755,10.196775 13.9798475,9.58755 Z" id="Shape"></path>
                        <path d="M0.686117479,1.476825 C0.263725943,2.057925 0.00748842288,2.769225 0.00748842288,3.54615 L0.00748842288,15.94305 C0.00748842288,16.7571 0.292345064,17.49615 0.751733858,18.0924 L9.18266003,9.7287 L0.686117479,1.476825 Z" id="Shape"></path>
                        <path d="M25.4894794,2.5563 C25.396875,2.33235 25.2646042,2.120025 25.0900721,1.9248 L24.6759104,1.461525 L16.3867453,9.728775 L24.9606929,18.021975 C25.3873847,17.4396 25.6462172,16.724025 25.6462172,15.942975 L25.6462172,3.546075 C25.6461431,3.199425 25.5808233,2.871975 25.4894794,2.5563 Z" id="Shape"></path>
                        <path d="M14.4717452,11.0031156 C13.9095564,11.4705318 13.0767912,11.5803806 12.3963873,11.3331091 L4.17613636,19.5 L22.6548872,19.5 C23.5888316,19.5 24.4315221,19.1246213 25.0568182,18.522018 L15.2466619,10.359375 L14.4717452,11.0031156 Z M26.0884212,2.30642998 C25.9929567,2.08393136 25.8566007,1.87298239 25.6766781,1.67902261 L25.2497248,1.21875 L16.7045455,9.43242159 L25.543303,17.671875 C25.9831733,17.0932743 26.25,16.3823368 26.25,15.6063486 L26.25,3.28979044 C26.2499236,2.94538701 26.1825863,2.62005915 26.0884212,2.30642998 Z M25.0568182,0.722123247 C24.656208,0.386374537 24.1827393,0.134136175 23.6613707,0 L13.7215909,9.75 C14.0261772,9.680074 14.3145477,9.54786785 14.5538975,9.35152574 L25.0568182,0.722123247 Z" id="Shape"></path>
                    </g>
                </g>
            </g>
        </g>
    </g>
</svg>