<?xml version="1.0" encoding="UTF-8"?>
<svg width="31px" height="16px" viewBox="0 0 31 16" version="1.1" xmlns="http://www.w3.org/2000/svg" xmlns:xlink="http://www.w3.org/1999/xlink">
    <!-- Generator: Sketch 51.2 (57519) - http://www.bohemiancoding.com/sketch -->
    <title>shape1</title>
    <desc>Created with Sketch.</desc>
    <defs></defs>
    <g id="Page-1" stroke="none" stroke-width="1" fill="none" fill-rule="evenodd">
        <g id="jenevieve-chang-home-06" transform="translate(-134.000000, -1253.000000)" fill="#000000">
            <g id="Group-5" transform="translate(134.000000, 980.000000)">
                <g id="Group-9" transform="translate(0.000000, 262.000000)">
                    <path d="M6.34457621,11 C5.59025363,11 4.97715126,11.7026566 4.97715126,12.5637555 C4.97715126,13.4248543 5.59025363,14.127511 6.34457621,14.127511 L12.8062619,14.127511 C13.5330293,14.1585105 14.1254653,14.8473896 14.1254653,15.6843777 C14.1254653,16.5248101 13.5330293,17.2136892 12.8062619,17.2412443 L1.36398055,17.2412443 C0.61310237,17.2412443 0,17.9473454 0,18.8084442 C0,19.6660987 0.61310237,20.3687553 1.36398055,20.3687553 L8.95542787,20.3687553 C9.72697243,20.3928661 10.3262972,21.0817451 10.3262972,21.9290664 C10.3262972,22.552502 9.99563526,23.0967164 9.53064189,23.3481573 C9.36875531,23.4308228 9.18620236,23.4824887 8.99331622,23.4928219 L6.18268963,23.4928219 C5.42836705,23.4928219 4.81526468,24.1885897 4.81526468,25.0496886 C4.81526468,25.907343 5.42836705,26.6099997 6.18268963,26.6099997 L19.9396046,26.6099997 C20.6904828,26.6099997 21.3070295,25.907343 21.3070295,25.0496886 C21.3070295,24.1885897 20.6904828,23.4928219 19.9396046,23.4928219 L15.9819944,23.4928219 C15.2414494,23.4687111 14.6662353,22.8418312 14.611125,22.0496202 L14.611125,21.9290664 C14.611125,21.0817451 15.2070054,20.3928661 15.944106,20.3687553 L23.6147744,20.3687553 C24.3656526,20.3687553 24.9753106,19.6660987 24.9753106,18.8084442 C24.9753106,17.9473454 24.3656526,17.2412443 23.6147744,17.2412443 L20.3770428,17.2412443 C19.646831,17.2136892 19.0647282,16.5248101 19.0647282,15.6843777 C19.0647282,14.8473896 19.646831,14.1585105 20.3770428,14.127511 L29.649355,14.127511 C30.3967888,14.127511 31.0098912,13.4248543 31.0098912,12.5637555 C31.0098912,11.706101 30.4002332,11 29.649355,11 L6.34457621,11 Z" id="shape1"></path>
                </g>
            </g>
        </g>
    </g>
</svg>