<?xml version="1.0" encoding="UTF-8"?>
<svg width="32px" height="27px" viewBox="0 0 32 27" version="1.1" xmlns="http://www.w3.org/2000/svg" xmlns:xlink="http://www.w3.org/1999/xlink">
    <!-- Generator: Sketch 51.2 (57519) - http://www.bohemiancoding.com/sketch -->
    <title>shape2</title>
    <desc>Created with Sketch.</desc>
    <defs></defs>
    <g id="Page-1" stroke="none" stroke-width="1" fill="none" fill-rule="evenodd">
        <g id="jenevieve-chang-home-06" transform="translate(-135.000000, -1387.000000)" fill="#000000">
            <g id="Group-5" transform="translate(134.000000, 980.000000)">
                <g id="Group-10" transform="translate(1.000000, 0.000000)">
                    <path d="M8.90985225,407 C8.61234447,407 8.326737,407.138837 8.14029878,407.36891 L0.218658144,417.273936 C-0.0986834935,417.670613 -0.0669493297,418.233894 0.290060013,418.59487 L15.1456154,433.446459 C15.3360204,433.640831 15.5898937,433.74 15.843767,433.74 C16.1016071,433.74 16.3554804,433.640831 16.5458854,433.446459 L31.4014408,418.59487 C31.7584502,418.233894 31.7901844,417.670613 31.4728427,417.273936 L23.5512021,407.36891 C23.3647639,407.138837 23.0791564,407 22.7776818,407 L8.90985225,407 Z M21.1394056,408.975452 L22.3016694,408.975452 L28.6405686,416.905026 L23.5155011,416.905026 L21.1394056,408.975452 Z M16.8354597,408.975452 L19.0727182,408.975452 L21.444847,416.905026 L16.8354597,416.905026 L16.8354597,408.975452 Z M12.6227494,408.975452 L14.8560412,408.975452 L14.8560412,416.905026 L10.2426871,416.905026 L12.6227494,408.975452 Z M9.38983148,408.975452 L10.5520952,408.975452 L8.17599972,416.905026 L3.05093226,416.905026 L9.38983148,408.975452 Z M23.3806309,418.884444 L28.3113266,418.884444 L18.0730921,429.126646 L23.3806309,418.884444 Z M16.8354597,418.884444 L21.1513059,418.884444 L16.8354597,427.206729 L16.8354597,418.884444 Z M10.5441617,418.884444 L14.8560412,418.884444 L14.8560412,427.206729 L10.5441617,418.884444 Z M3.38017421,418.884444 L8.31086991,418.884444 L13.6223756,429.126646 L3.38017421,418.884444 Z" id="shape2"></path>
                </g>
            </g>
        </g>
    </g>
</svg>