<?xml version="1.0" encoding="UTF-8"?>
<svg width="24px" height="25px" viewBox="0 0 24 25" version="1.1" xmlns="http://www.w3.org/2000/svg" xmlns:xlink="http://www.w3.org/1999/xlink">
    <!-- Generator: Sketch 51.2 (57519) - http://www.bohemiancoding.com/sketch -->
    <title>Group</title>
    <desc>Created with Sketch.</desc>
    <defs></defs>
    <g id="Page-1" stroke="none" stroke-width="1" fill="none" fill-rule="evenodd">
        <g id="jenevieve-chang-home-06" transform="translate(-139.000000, -1870.000000)" fill="#000000">
            <g id="Group-5" transform="translate(134.000000, 980.000000)">
                <g id="Group-10" transform="translate(1.000000, 0.000000)">
                    <g id="Group-7" transform="translate(4.000000, 887.000000)">
                        <g id="Group" transform="translate(0.000000, 3.000000)">
                            <path d="M10.1007714,13.8847429 C8.84162857,15.1327429 5.66591429,17.4318857 2.14477143,19.5936 L0.517914286,16.2841714 C4.38077143,14.8207429 8.14705714,13.7138857 9.90391429,13.4836 C10.1156286,13.4798857 10.3087714,13.4687429 10.4796286,13.4501714 C10.3607714,13.5727429 10.2344857,13.7176 10.1007714,13.8847429" id="Fill-23"></path>
                            <path d="M13.9547143,11.4942286 C15.2138571,10.2425143 18.3895714,7.94337143 21.9107143,5.78537143 L23.5375714,9.0948 C19.6747143,10.5582286 15.9084286,11.6650857 14.1515714,11.8953714 C13.9398571,11.8990857 13.7467143,11.9102286 13.5758571,11.9288 C13.6947143,11.8062286 13.821,11.6613714 13.9547143,11.4942286" id="Fill-25"></path>
                            <path d="M13.2237429,14.6172 C14.4717429,15.8726286 16.7708857,19.0520571 18.9326,22.5732 L15.6194571,24.1963429 C14.1560286,20.3297714 13.0491714,16.5634857 12.8188857,14.8103429 C12.8151714,14.5986286 12.8040286,14.4054857 12.7854571,14.2346286 C12.9117429,14.3572 13.0566,14.4834857 13.2237429,14.6172" id="Fill-27"></path>
                            <path d="M10.8350857,10.7651143 C9.58708571,9.50968571 7.28422857,6.33025714 5.12251429,2.8054 L8.43565714,1.18225714 C9.89908571,5.0414 11.0022286,8.80768571 11.2325143,10.5608286 C11.2362286,10.7762571 11.2473714,10.9694 11.2696571,11.1439714 C11.1433714,11.0214 10.9985143,10.8988286 10.8350857,10.7651143" id="Fill-29"></path>
                            <path d="M9.8196,12.1724571 C8.04417143,12.1650286 4.17388571,11.5447429 0.158742857,10.5827429 L1.35102857,7.09131429 C5.1136,8.78874286 8.55674286,10.6681714 9.96445714,11.7490286 C10.1167429,11.8976 10.2616,12.0238857 10.3953143,12.1316 C10.2207429,12.1353143 10.0313143,12.1464571 9.8196,12.1724571" id="Fill-31"></path>
                            <path d="M10.4072,12.1434857 C10.2512,12.1620571 10.0543429,12.1732 9.82034286,12.1732 C10.0320571,12.1472 10.2214857,12.1360571 10.3960571,12.1323429 L10.4072,12.1434857 Z" id="Fill-33"></path>
                            <path d="M9.96297143,11.7482857 C10.1486857,11.8894286 10.3009714,12.0194286 10.4124,12.1345714 L10.3975429,12.1345714 C10.2638286,12.0231429 10.1189714,11.8968571 9.96297143,11.7482857" id="Fill-35"></path>
                            <path d="M10.4072,12.1434857 L10.3960571,12.1323429 L10.4109143,12.1323429 C10.4146286,12.1323429 10.4183429,12.1360571 10.4220571,12.1397714 C10.4146286,12.1397714 10.4109143,12.1397714 10.4072,12.1434857" id="Fill-37"></path>
                            <path d="M14.2358857,13.2061429 C16.0076,13.2135714 19.8816,13.8338571 23.8967429,14.7958571 L22.7044571,18.2872857 C18.9418857,16.5898571 15.4987429,14.7104286 14.0910286,13.6295714 C13.9350286,13.481 13.7938857,13.3547143 13.6601714,13.247 C13.8310286,13.2432857 14.0241714,13.2284286 14.2358857,13.2061429" id="Fill-39"></path>
                            <path d="M11.5099714,14.8965143 C11.5062571,16.6719429 10.8822571,20.5459429 9.92025714,24.5610857 L6.42882857,23.3650857 C8.12625714,19.6025143 10.0056857,16.1593714 11.0865429,14.7516571 C11.2351143,14.5993714 11.3614,14.4545143 11.4691143,14.3208 C11.4728286,14.4953714 11.4876857,14.6848 11.5099714,14.8965143" id="Fill-41"></path>
                            <path d="M11.0854286,14.7516571 C11.2302857,14.5659429 11.3565714,14.4136571 11.4717143,14.3059429 L11.4717143,14.3208 C11.3602857,14.4545143 11.234,14.5993714 11.0854286,14.7516571" id="Fill-43"></path>
                            <path d="M12.5436571,10.4787429 C12.5510857,8.70702857 13.1713714,4.83302857 14.1333714,0.817885714 L17.6248,2.01388571 C15.9273714,5.77645714 14.0479429,9.2196 12.9708,10.6273143 C12.8222286,10.7796 12.6922286,10.9244571 12.5845143,11.0544571 C12.5808,10.8836 12.5659429,10.6941714 12.5436571,10.4787429" id="Fill-45"></path>
                            <path d="M12.9696857,10.6273143 C12.8248286,10.8130286 12.6985429,10.9616 12.5834,11.0730286 L12.5834,11.0544571 C12.6911143,10.9244571 12.8211143,10.7796 12.9696857,10.6273143" id="Fill-47"></path>
                        </g>
                    </g>
                </g>
            </g>
        </g>
    </g>
</svg>