<?xml version="1.0" encoding="UTF-8"?>
<svg width="25px" height="22px" viewBox="0 0 25 22" version="1.1" xmlns="http://www.w3.org/2000/svg" xmlns:xlink="http://www.w3.org/1999/xlink">
    <!-- Generator: Sketch 51.2 (57519) - http://www.bohemiancoding.com/sketch -->
    <title>twitter</title>
    <desc>Created with Sketch.</desc>
    <defs></defs>
    <g id="Page-1" stroke="none" stroke-width="1" fill="none" fill-rule="evenodd">
        <g id="jenevieve-chang-home-06" transform="translate(-1024.000000, -755.000000)" fill="#FFEEE4">
            <g id="splash" transform="translate(0.000000, 100.000000)">
                <g id="social" transform="translate(1024.000000, 651.000000)">
                    <path d="M15.7129924,4.24907185 C13.4477683,5.0878157 12.0163265,7.25112355 12.1789314,9.61861668 L12.2334213,10.5321698 L11.3269857,10.420396 C8.02904765,9.99178289 5.1471359,8.53784287 2.70027866,6.09466036 L1.504095,4.88275031 L1.19618366,5.77782113 C0.544034361,7.77302817 0.960925557,9.88000905 2.31971408,11.2969845 C3.04451662,12.0802815 2.88104683,12.1920553 1.63123816,11.7255976 C1.19618366,11.5768591 0.815619082,11.4650853 0.779292463,11.5205322 C0.653014217,11.6516684 1.0872038,13.3476384 1.43144176,14.0191615 C1.90282288,14.952077 2.86288352,15.86475 3.91462563,16.4060171 L4.80289794,16.8346301 L3.75202076,16.8531124 C2.7374702,16.8531124 2.70114358,16.8715947 2.81012343,17.2641233 C3.1725247,18.4760334 4.60396646,19.7627527 6.19887801,20.322502 L7.32240843,20.7132704 L6.34418448,21.3099843 C4.89457941,22.1689706 3.19068801,22.6530305 1.48679661,22.689115 C0.670312607,22.7075973 0,22.7824066 0,22.8387335 C0,23.0244365 2.21159914,24.0682458 3.49773443,24.4792567 C7.35787013,25.6911667 11.9436733,25.168382 15.3869178,23.0992458 C17.833775,21.6259434 20.2797674,18.6987009 21.422326,15.8638699 C22.0390136,14.3544831 22.6548363,11.5944613 22.6548363,10.2716575 C22.6548363,9.41355129 22.7093262,9.30177745 23.7238768,8.2764505 C24.3224011,7.67973662 24.8837338,7.02757587 24.9927137,6.84099277 C25.1743468,6.48630885 25.1553185,6.48630885 24.2315845,6.80314808 C22.6911629,7.36289739 22.4732032,7.28808813 23.2351973,6.44934428 C23.79653,5.8526304 24.4677075,4.77097647 24.4677075,4.45413724 C24.4677075,4.39869038 24.1961228,4.49110182 23.8873466,4.65920263 C23.5612719,4.84578573 22.8364694,5.12566039 22.292435,5.29288109 L21.3142111,5.61060043 L20.4259387,4.99452415 C19.9363943,4.65920263 19.2487833,4.28603643 18.8855171,4.17426259 C17.9609182,3.91375033 16.5467748,3.95071491 15.7129924,4.24907185 Z" id="twitter"></path>
                </g>
            </g>
        </g>
    </g>
</svg>